<?xml version="1.0" encoding="utf-8"?>
<!-- Generator: Adobe Illustrator 23.1.1, SVG Export Plug-In . SVG Version: 6.00 Build 0)  -->
<svg version="1.1" id="Layer_1" xmlns="http://www.w3.org/2000/svg" xmlns:xlink="http://www.w3.org/1999/xlink" x="0px" y="0px"
	 viewBox="0 0 709.4 141.9" style="enable-background:new 0 0 709.4 141.9;" xml:space="preserve">
<style type="text/css">
	.st0{fill:#492F92;}
</style>
<g>
	<g>
		<g>
			<path class="st0" d="M531.2,25l-4.7-12.6c-0.2-0.6-1-0.9-1.7-0.7l-12.3,3.4c-0.7,0.2-1.1,0.9-0.9,1.5l4.4,12.7
				c0.2,0.6,1,0.9,1.7,0.7l12.6-3.6C531.1,26.3,531.5,25.6,531.2,25z M527.4,24.6l-8.4,2.4c-0.5,0.1-1-0.1-1.2-0.5l-3-8.5
				c-0.1-0.4,0.1-0.8,0.6-1l8.3-2.3c0.5-0.1,1,0.1,1.1,0.5l3.1,8.5C528.1,24.1,527.9,24.5,527.4,24.6z"/>
		</g>
	</g>
	<g>
		<g>
			<path class="st0" d="M556.5,15.8l-12.3-3.9c-0.7-0.2-1.5,0.1-1.7,0.7l-4.4,12.5c-0.2,0.6,0.2,1.3,0.9,1.5l12.2,4
				c0.7,0.2,1.4-0.1,1.7-0.7l4.5-12.6C557.6,16.7,557.2,16.1,556.5,15.8z M554.2,18.6l-3,8.4c-0.1,0.4-0.6,0.6-1.1,0.4l-8.2-2.7
				c-0.5-0.2-0.7-0.6-0.6-1l3-8.4c0.1-0.4,0.6-0.6,1.1-0.4l8.3,2.7C554.1,17.8,554.4,18.2,554.2,18.6z"/>
		</g>
	</g>
	<g>
		<g>
			<path class="st0" d="M544.7,12.4l-9.5-10c-0.4-0.5-1.2-0.4-1.8,0.1l-9.1,9.2c-0.5,0.5-0.6,1.4-0.2,1.8l9.5,10
				c0.5,0.5,1.3,0.4,1.8-0.1l9.1-9.2C545.1,13.7,545.1,12.9,544.7,12.4z M541.2,13.8l-6.2,6.2c-0.4,0.4-0.9,0.4-1.2,0.1l-6.4-6.7
				c-0.3-0.3-0.3-0.9,0.1-1.2l6.2-6.2c0.4-0.4,0.9-0.4,1.2-0.1l6.4,6.7C541.6,12.9,541.6,13.5,541.2,13.8z"/>
		</g>
	</g>
	<g>
		<g>
			<path class="st0" d="M557,41.1L552,28.6c-0.2-0.6-1-0.9-1.7-0.7l-12.2,3.7c-0.7,0.2-1.1,0.9-0.9,1.5l4.6,12.6
				c0.2,0.6,1,0.9,1.7,0.7l12.5-3.8C556.8,42.4,557.2,41.7,557,41.1z M553.1,40.8l-8.4,2.6c-0.5,0.1-1-0.1-1.2-0.5l-3.2-8.5
				c-0.2-0.4,0.1-0.9,0.6-1l8.2-2.5c0.5-0.1,1,0.1,1.1,0.5l3.3,8.4C553.8,40.2,553.6,40.7,553.1,40.8z"/>
		</g>
	</g>
	<g>
		<g>
			<path class="st0" d="M530.4,31.3l-12.5-3.6c-0.7-0.2-1.5,0.1-1.7,0.7l-4.4,12.7c-0.2,0.6,0.2,1.3,0.9,1.5l12.4,3.7
				c0.7,0.2,1.5-0.1,1.7-0.7l4.5-12.8C531.6,32.2,531.2,31.5,530.4,31.3z M528.1,34.2l-3,8.6c-0.1,0.4-0.7,0.6-1.1,0.5l-8.3-2.5
				c-0.5-0.1-0.8-0.6-0.6-1l3-8.5c0.1-0.4,0.6-0.6,1.1-0.5l8.4,2.4C528,33.3,528.3,33.8,528.1,34.2z"/>
		</g>
	</g>
	<g>
		<g>
			<path class="st0" d="M544.4,44.2l-9.3-9.9c-0.4-0.5-1.2-0.4-1.7,0.1l-8.9,8.8c-0.5,0.5-0.6,1.3-0.2,1.8l9.3,9.9
				c0.4,0.5,1.2,0.4,1.8-0.1l9-8.8C544.8,45.5,544.9,44.7,544.4,44.2z M541.1,45.5l-6,5.9c-0.4,0.3-0.9,0.4-1.2,0.1l-6.2-6.6
				c-0.3-0.3-0.2-0.9,0.1-1.2l6-5.9c0.3-0.3,0.9-0.4,1.2,0l6.2,6.6C541.5,44.7,541.4,45.2,541.1,45.5z"/>
		</g>
	</g>
	<g>
		<g>
			<path class="st0" d="M534.3,21.8c-3.9,0-7.1,3.2-7.1,7.1c0,3.9,3.2,7.1,7.1,7.1c3.9,0,7.1-3.2,7.1-7.1
				C541.4,25,538.2,21.8,534.3,21.8z M534.3,33.2c-2.4,0-4.3-1.9-4.3-4.3c0-2.4,1.9-4.3,4.3-4.3c2.4,0,4.3,1.9,4.3,4.3
				C538.6,31.3,536.7,33.2,534.3,33.2z"/>
		</g>
	</g>
</g>
<path class="st0" d="M543.4,137.3c0,0.7-0.6,1.3-1.3,1.3h-16.8c-0.7,0-1.3-0.6-1.3-1.3V65.5c0-0.7,0.6-1.3,1.3-1.3h16.8
	c0.7,0,1.3,0.6,1.3,1.3V137.3z"/>
<path class="st0" d="M448.8,137.5c0,0.7-0.6,1.3-1.3,1.3h-16.8c-0.7,0-1.3-0.6-1.3-1.3V65.6c0-0.7,0.6-1.3,1.3-1.3h16.8
	c0.7,0,1.3,0.6,1.3,1.3V137.5z"/>
<g>
	<path class="st0" d="M245.8,43.8h-60.4c0,0-12.4,1.8-11.9,21.8v25.9c0,0-1.2,10.6,6.1,10.8h40.5c0,0,7.5-1.4,7.4,8.6v7.9h-49.8
		c0,0-6.2,7.4-0.3,19.7h64.4c0,0,6.3,0.5,5.8-19.4c0,0,1.1-23.7-2.6-27.2c0,0-4.4-9.7-22.5-9h-23.3c0,0-4.3,0.5-4.3-6
		c0,0-0.8-8.9,1-12.8c0,0,0.7-1.6,1.9-1.7h47.7C245.4,62.5,250.7,55.2,245.8,43.8z"/>
</g>
<g>
	<g>
		<path class="st0" d="M199.2,65.5h98.7c0,0,2.4,7.2-0.5,14.6h-97.9C199.5,80.1,196.7,73.1,199.2,65.5z"/>
	</g>
	<path class="st0" d="M273.3,111.9c0,0.7-0.6,1.2-1.4,1.2h-18.4c-0.8,0-1.4-0.5-1.4-1.2v-67c0-0.7,0.6-1.2,1.4-1.2h18.4
		c0.8,0,1.4,0.5,1.4,1.2V111.9z"/>
	<g>
		<path class="st0" d="M252.1,110.9v8.3c0,0-0.6,18.6,21.2,19.4h22.6c0,0,5.5-8.6-0.3-19.4h-17.5c0,0-5.2,1.5-4.8-7.4L252.1,110.9z"
			/>
	</g>
</g>
<g>
	<path class="st0" d="M369.8,64.1h53.5c0,0,1.3,8.9-0.3,18.1h-53.1C369.9,82.2,368.4,73.5,369.8,64.1z"/>
</g>
<path class="st0" d="M398.3,111.9c0,0.7-0.6,1.2-1.4,1.2h-18.4c-0.8,0-1.4-0.5-1.4-1.2V45c0-0.7,0.6-1.2,1.4-1.2h18.4
	c0.8,0,1.4,0.5,1.4,1.2V111.9z"/>
<g>
	<path class="st0" d="M377.1,110.9v8.3c0,0-0.6,18.6,21.2,19.4h22.6c0,0,5.5-8.6-0.3-19.4h-17.5c0,0-5.2,1.5-4.8-7.4L377.1,110.9z"
		/>
</g>
<path class="st0" d="M476.5,112.4c0,0.5-0.6,0.8-1.4,0.8h-18.4c-0.8,0-1.4-0.4-1.4-0.8V65c0-0.5,0.6-0.8,1.4-0.8h18.4
	c0.8,0,1.4,0.4,1.4,0.8V112.4z"/>
<g>
	<path class="st0" d="M455.4,111.1v8.2c0,0-0.6,18.5,21.2,19.2h22.6c0,0,5.5-8.5-0.3-19.3h-17.5c0,0-5.2,1.5-4.8-7.4L455.4,111.1z"
		/>
</g>
<g>
	<g>
		<path class="st0" d="M353.4,64.2H305c-2.8,8.6-0.1,17.9-0.1,17.9h38.7c4.2,0.1,3.3,9.9,3.3,9.9h-20.4c-23,0.4-22,16.7-22,16.7
			v10.5c0,20.4,1.9,19.4,1.9,19.4h60V82.2C366.5,64.3,353.4,64.2,353.4,64.2z M347,119.2l-21.3-0.2c-3.1-7.4,4-8.1,4-8.1H347V119.2z
			"/>
	</g>
</g>
<g>
	<path class="st0" d="M474.3,64.1h42.8c0,0,3.2,8.9-0.1,18h-41.5L474.3,64.1z"/>
</g>
<g>
	<path class="st0" d="M474.4,119.2h42.8c0,0,3.2,9.6-0.1,19.4h-41.5L474.4,119.2z"/>
</g>
<path class="st0" d="M641.1,112.6c0,0.5-0.6,0.8-1.4,0.8h-18.4c-0.8,0-1.4-0.4-1.4-0.8V65c0-0.5,0.6-0.8,1.4-0.8h18.4
	c0.8,0,1.4,0.4,1.4,0.8V112.6z"/>
<g>
	<path class="st0" d="M620,111.3v8.2c0,0-0.6,18.5,21.2,19.2h22.6c0,0,5.5-8.5-0.3-19.3H646c0,0-5.2,1.5-4.8-7.4L620,111.3z"/>
</g>
<g>
	<path class="st0" d="M639.1,119.2h44.2c0,0,3.3,9.6-0.1,19.4h-42.9L639.1,119.2z"/>
</g>
<g>
	<g>
		<path class="st0" d="M614.8,46.5c0,0-9.6-3-19.6,0.2v17.5h-25.4c0,0-19.6-1.1-19.6,21v53.4h48.3c0,0,16.4-1.5,16.4-19.4
			L614.8,46.5z M595.2,113.7c0.1,5.8-2.5,5.5-2.5,5.5h-19.1c-3.7,0-3.8-3.3-3.8-3.3v-30c-0.1-3.7,3.7-3.7,3.7-3.7h21.7L595.2,113.7z
			"/>
	</g>
</g>
<g>
	<path class="st0" d="M639.8,64.2h27.1c0,0,17,0.2,17,21.2v21.9c0,0,0.1,4.1-4.8,4.1h-33.5V92H664c0,0,0.9-9.8-6.6-9.9h-17.5
		L639.8,64.2z"/>
</g>
<g>
	<path class="st0" d="M704.7,135.1c-1.8,1.8-4,2.7-6.6,2.7c-2.6,0-4.8-0.9-6.5-2.7c-1.8-1.8-2.7-4-2.7-6.6c0-2.5,0.9-4.7,2.7-6.5
		c1.8-1.8,4-2.7,6.5-2.7c2.6,0,4.8,0.9,6.6,2.7c1.8,1.8,2.7,4,2.7,6.5C707.4,131.1,706.5,133.3,704.7,135.1z M692.5,122.9
		c-1.5,1.6-2.3,3.4-2.3,5.6c0,2.2,0.8,4.1,2.3,5.7c1.5,1.6,3.4,2.3,5.6,2.3c2.2,0,4.1-0.8,5.6-2.3c1.5-1.6,2.3-3.5,2.3-5.7
		c0-2.2-0.8-4.1-2.3-5.6c-1.6-1.6-3.4-2.3-5.6-2.3C695.9,120.6,694,121.4,692.5,122.9z M698,123.5c1.3,0,2.2,0.1,2.8,0.4
		c1.1,0.4,1.6,1.3,1.6,2.6c0,0.9-0.3,1.6-1,2c-0.3,0.2-0.8,0.4-1.5,0.5c0.8,0.1,1.4,0.5,1.7,1c0.4,0.5,0.5,1.1,0.5,1.6v0.7
		c0,0.2,0,0.5,0,0.8c0,0.3,0,0.4,0.1,0.5l0.1,0.1h-1.7c0,0,0-0.1,0-0.1c0,0,0-0.1,0-0.1l0-0.3v-0.8c0-1.2-0.3-1.9-1-2.3
		c-0.4-0.2-1.1-0.3-2-0.3h-1.4v4h-1.8v-10.2H698z M699.9,125.1c-0.5-0.2-1.2-0.4-2.2-0.4h-1.6v3.6h1.6c0.8,0,1.3-0.1,1.7-0.2
		c0.7-0.3,1.1-0.8,1.1-1.6C700.6,125.8,700.4,125.3,699.9,125.1z"/>
</g>
<g>
	<path class="st0" d="M25.3,76.9h14.4l21.4,60.9H47.4l-4-12.5H21.1L17,137.8H3.7L25.3,76.9z M24.6,114.8h15.5l-7.7-23.9L24.6,114.8z
		"/>
	<path class="st0" d="M68.2,83.3c4.9-5,11.1-7.5,18.6-7.5c10.1,0,17.5,3.3,22.1,10c2.6,3.8,4,7.5,4.2,11.3h-12.7
		c-0.8-2.9-1.8-5.1-3.1-6.6c-2.3-2.6-5.6-4-10-4c-4.5,0-8.1,1.9-10.7,5.6c-2.6,3.7-3.9,9-3.9,15.8c0,6.8,1.4,11.9,4.1,15.3
		c2.7,3.4,6.2,5.1,10.5,5.1c4.3,0,7.6-1.5,9.9-4.4c1.3-1.6,2.3-3.9,3.1-7.1H113c-1.1,6.6-3.9,12-8.3,16.2
		c-4.5,4.2-10.2,6.2-17.2,6.2c-8.6,0-15.4-2.8-20.4-8.4c-4.9-5.6-7.4-13.4-7.4-23.2C59.8,97.3,62.6,89.1,68.2,83.3z"/>
	<path class="st0" d="M118.5,76.9h12.7v50h30.3v10.9h-42.9V76.9z"/>
</g>
</svg>
