<svg width="156" height="55" viewBox="14 0 156 65" fill="none" xmlns="http://www.w3.org/2000/svg">
<g clip-path="url(#clip0)">
<path d="M11.001 63.9103C10.7534 64.2067 10.4034 64.4375 9.95111 64.6025C9.49879 64.7645 8.99756 64.8455 8.44745 64.8455C7.86981 64.8455 7.36245 64.7202 6.92543 64.4695C6.49144 64.2159 6.15524 63.8492 5.91685 63.3693C5.68152 62.8895 5.5608 62.3256 5.55469 61.6777V61.2238C5.55469 60.5576 5.66624 59.9814 5.88935 59.4955C6.11551 59.0064 6.43948 58.6336 6.86125 58.3769C7.28604 58.1171 7.78271 57.9872 8.35117 57.9872C9.14273 57.9872 9.76167 58.1767 10.2079 58.5556C10.6541 58.9316 10.9185 59.4802 11.001 60.2015H9.6623C9.6012 59.8194 9.4652 59.5398 9.25431 59.3625C9.04646 59.1853 8.75923 59.0966 8.39241 59.0966C7.92485 59.0966 7.56879 59.2724 7.32425 59.6238C7.07977 59.9753 6.95599 60.4979 6.95294 61.1917V61.6181C6.95294 62.318 7.08589 62.8467 7.35176 63.2043C7.61769 63.5619 8.00733 63.7406 8.52083 63.7406C9.03729 63.7406 9.40562 63.6306 9.62568 63.4106V62.2599H8.37407V61.2467H11.001V63.9103ZM17.4542 62.3103H16.3585V64.7538H14.9832V58.0789H17.4634C18.2519 58.0789 18.8601 58.2546 19.2879 58.6061C19.7158 58.9575 19.9298 59.4542 19.9298 60.0961C19.9298 60.5514 19.8305 60.9319 19.6318 61.2375C19.4362 61.5401 19.1382 61.7816 18.7378 61.9619L20.1819 64.6896V64.7538H18.7057L17.4542 62.3103ZM16.3585 61.1963H17.4679C17.8133 61.1963 18.0807 61.1092 18.2702 60.935C18.4597 60.7577 18.5544 60.5147 18.5544 60.2061C18.5544 59.8912 18.4643 59.6437 18.284 59.4634C18.1067 59.2831 17.8332 59.1929 17.4634 59.1929H16.3585V61.1963ZM27.8592 61.861H25.2185V63.649H28.3176V64.7538H23.8432V58.0789H28.3084V59.1929H25.2185V60.7837H27.8592V61.861ZM35.7565 63.3785H33.345L32.8867 64.7538H31.4242L33.909 58.0789H35.1834L37.6819 64.7538H36.2195L35.7565 63.3785ZM33.7164 62.2645H35.3851L34.5462 59.7659L33.7164 62.2645ZM45.6434 59.1929H43.5987V64.7538H42.2235V59.1929H40.2063V58.0789H45.6434V59.1929ZM55.5974 63.649H58.5177V64.7538H54.2221V58.0789H55.5974V63.649ZM66.0346 63.3785H63.6231L63.1647 64.7538H61.7022L64.187 58.0789H65.4615L67.96 64.7538H66.4976L66.0346 63.3785ZM63.9945 62.2645H65.6632L64.8243 59.7659L63.9945 62.2645ZM73.5374 62.0765L72.8224 62.8467V64.7538H71.4471V58.0789H72.8224V61.1046L73.4277 60.2748L75.1285 58.0789H76.8199L74.4496 61.045L76.8885 64.7538H75.252L73.5374 62.0765ZM84.2863 61.861H81.6458V63.649H84.7449V64.7538H80.2707V58.0789H84.7355V59.1929H81.6458V60.7837H84.2863V61.861ZM91.8768 63.0026C91.8768 62.7428 91.7851 62.5441 91.6016 62.4066C91.4182 62.266 91.0882 62.1193 90.6115 61.9665C90.1341 61.8106 89.7571 61.6578 89.479 61.508C88.7207 61.0985 88.3423 60.5468 88.3423 59.853C88.3423 59.4924 88.4426 59.1715 88.6449 58.8903C88.8493 58.6061 89.141 58.3845 89.5202 58.2256C89.9023 58.0667 90.3298 57.9872 90.8036 57.9872C91.2803 57.9872 91.7057 58.0743 92.0783 58.2485C92.451 58.4196 92.7399 58.6627 92.945 58.9774C93.1523 59.2922 93.2563 59.6498 93.2563 60.0502H91.8811C91.8811 59.7446 91.7851 59.5077 91.5923 59.3396C91.3994 59.1684 91.1293 59.0829 90.7812 59.0829C90.4446 59.0829 90.1832 59.1547 89.9969 59.2984C89.8105 59.4389 89.7174 59.6254 89.7174 59.8577C89.7174 60.0746 89.8257 60.2565 90.0431 60.4032C90.2626 60.5499 90.5855 60.6874 91.0101 60.8158C91.7923 61.0511 92.3622 61.343 92.7204 61.6914C93.0779 62.0398 93.2563 62.4738 93.2563 62.9934C93.2563 63.571 93.0381 64.0249 92.6012 64.3549C92.1635 64.682 91.5757 64.8455 90.8361 64.8455C90.3226 64.8455 89.8546 64.7523 89.4328 64.5658C89.011 64.3764 88.6889 64.1181 88.4658 63.7911C88.2455 63.4641 88.1357 63.085 88.1357 62.6542H89.5159C89.5159 63.3907 89.9557 63.759 90.8361 63.759C91.1625 63.759 91.4182 63.6933 91.6016 63.5619C91.7851 63.4274 91.8768 63.241 91.8768 63.0026ZM103.632 63.649H106.552V64.7538H102.257V58.0789H103.632V63.649ZM111.671 64.7538H110.296V58.0789H111.671V64.7538ZM121.242 64.7538H119.867L117.19 60.3619V64.7538H115.814V58.0789H117.19L119.872 62.4799V58.0789H121.242V64.7538ZM126.77 64.7538H125.394V58.0789H126.77V64.7538ZM136.34 64.7538H134.965L132.287 60.3619V64.7538H130.912V58.0789H132.287L134.97 62.4799V58.0789H136.34V64.7538ZM145.686 63.9103C145.438 64.2067 145.089 64.4375 144.636 64.6025C144.184 64.7645 143.683 64.8455 143.132 64.8455C142.555 64.8455 142.047 64.7202 141.61 64.4695C141.176 64.2159 140.841 63.8492 140.602 63.3693C140.367 62.8895 140.246 62.3256 140.24 61.6777V61.2238C140.24 60.5576 140.352 59.9814 140.574 59.4955C140.801 59.0064 141.124 58.6336 141.546 58.3769C141.971 58.1171 142.468 57.9872 143.036 57.9872C143.828 57.9872 144.447 58.1767 144.893 58.5556C145.339 58.9316 145.604 59.4802 145.686 60.2015H144.348C144.286 59.8194 144.151 59.5398 143.94 59.3625C143.732 59.1853 143.444 59.0966 143.077 59.0966C142.61 59.0966 142.254 59.2724 142.009 59.6238C141.765 59.9753 141.641 60.4979 141.638 61.1917V61.6181C141.638 62.318 141.771 62.8467 142.037 63.2043C142.303 63.5619 142.692 63.7406 143.206 63.7406C143.722 63.7406 144.091 63.6306 144.311 63.4106V62.2599H143.059V61.2467H145.686V63.9103Z" fill="#0F609B"/>
<path d="M3.84753 47.6668C3.84753 47.6668 17.5977 3.85194 83.0463 3.85194" stroke="#0F609B" stroke-width="10.6667" stroke-miterlimit="10"/>
<path d="M23.0972 47.6666C23.0972 47.6666 36.8473 3.85176 102.296 3.85176" stroke="#0F609B" stroke-width="10.6667" stroke-miterlimit="10"/>
<path d="M43.4469 47.6666C43.4469 47.6666 57.197 3.85176 122.646 3.85176" stroke="#0F609B" stroke-width="10.6667" stroke-miterlimit="10"/>
<path d="M151.181 50.0735H3.84705V3.85129H151.181V50.0735Z" stroke="#0F609B" stroke-width="10.6667" stroke-miterlimit="10"/>
<path d="M3.84753 47.6668C3.84753 47.6668 17.5977 3.85194 83.0463 3.85194" stroke="#0F609B" stroke-width="10.6667" stroke-miterlimit="10"/>
<path d="M23.0972 47.6666C23.0972 47.6666 36.8473 3.85176 102.296 3.85176" stroke="#0F609B" stroke-width="10.6667" stroke-miterlimit="10"/>
<path d="M43.4469 47.6666C43.4469 47.6666 57.197 3.85176 122.646 3.85176" stroke="#0F609B" stroke-width="10.6667" stroke-miterlimit="10"/>
<path d="M151.181 50.0735H3.84705V3.85129H151.181V50.0735Z" stroke="#0F609B" stroke-width="10.6667" stroke-miterlimit="10"/>
<path d="M99.2911 38.5336C98.34 39.6728 96.9952 40.5594 95.2575 41.1935C93.5191 41.816 91.593 42.1272 89.479 42.1272C87.2596 42.1272 85.3103 41.6457 83.6312 40.6827C81.9636 39.708 80.6715 38.2987 79.7557 36.455C78.8515 34.6111 78.3871 32.4445 78.364 29.9548V28.2108C78.364 25.6507 78.7923 23.437 79.6496 21.5697C80.5191 19.6907 81.7635 18.2579 83.3842 17.2715C85.0164 16.2733 86.9252 15.7741 89.1092 15.7741C92.1512 15.7741 94.5288 16.5023 96.2433 17.9585C97.9586 19.4029 98.9741 21.511 99.2911 24.2825H94.1475C93.9127 22.8145 93.3898 21.74 92.5795 21.0589C91.7807 20.3777 90.6772 20.0371 89.2681 20.0371C87.4712 20.0371 86.1026 20.7124 85.1637 22.063C84.2241 23.4134 83.7482 25.4217 83.7366 28.0875V29.7257C83.7366 32.4151 84.2472 34.4468 85.2692 35.8208C86.2911 37.1948 87.7883 37.8818 89.7614 37.8818C91.7461 37.8818 93.1609 37.4591 94.0066 36.6135V32.192H89.1973V28.2989H99.2911V38.5336ZM108.874 37.5295H120.095V41.7749H103.59V16.1264H108.874V37.5295ZM128.428 37.5295H139.649V41.7749H123.143V16.1264H128.428V37.5295Z" fill="#0F609B"/>
</g>
<defs>
<clipPath id="clip0">
<rect width="155.278" height="65" fill="white"/>
</clipPath>
</defs>
</svg>
