<svg width="323" height="486" viewBox="0 0 323 486" fill="none" xmlns="http://www.w3.org/2000/svg">
<rect x="321.848" y="1" width="48.4" height="45.8356" transform="rotate(90 321.848 1)" stroke="black"/>
<rect x="321.848" y="243" width="48.4" height="45.8356" transform="rotate(90 321.848 243)" stroke="black"/>
<rect x="321.848" y="49.3999" width="48.4" height="45.8356" transform="rotate(90 321.848 49.3999)" stroke="black"/>
<rect x="321.848" y="291.4" width="48.4" height="45.8356" transform="rotate(90 321.848 291.4)" stroke="black"/>
<rect x="321.848" y="97.8" width="48.4" height="45.8356" transform="rotate(90 321.848 97.8)" stroke="black"/>
<rect x="321.848" y="339.8" width="48.4" height="45.8356" transform="rotate(90 321.848 339.8)" stroke="black"/>
<rect x="321.848" y="146.2" width="48.4" height="45.8356" transform="rotate(90 321.848 146.2)" stroke="black"/>
<rect x="321.848" y="388.2" width="48.4" height="45.8356" transform="rotate(90 321.848 388.2)" stroke="black"/>
<rect x="321.848" y="194.6" width="48.4" height="45.8356" transform="rotate(90 321.848 194.6)" stroke="black"/>
<rect x="321.848" y="436.6" width="48.4" height="45.8356" transform="rotate(90 321.848 436.6)" stroke="black"/>
<rect x="276.012" y="1" width="48.4" height="45.8356" transform="rotate(90 276.012 1)" stroke="black"/>
<rect x="230.176" y="1" width="48.4" height="45.8356" transform="rotate(90 230.176 1)" stroke="black"/>
<rect x="184.341" y="1" width="48.4" height="45.8356" transform="rotate(90 184.341 1)" stroke="black"/>
<rect x="138.505" y="1" width="48.4" height="45.8356" transform="rotate(90 138.505 1)" stroke="black"/>
<rect x="92.6699" y="1" width="48.4" height="45.8356" transform="rotate(90 92.6699 1)" stroke="black"/>
<rect x="46.834" y="1" width="48.4" height="45.8356" transform="rotate(90 46.834 1)" stroke="black"/>
<rect x="276.012" y="243" width="48.4" height="45.8356" transform="rotate(90 276.012 243)" stroke="black"/>
<rect x="230.176" y="243" width="48.4" height="45.8356" transform="rotate(90 230.176 243)" stroke="black"/>
<rect x="184.341" y="243" width="48.4" height="45.8356" transform="rotate(90 184.341 243)" stroke="black"/>
<rect x="138.505" y="243" width="48.4" height="45.8356" transform="rotate(90 138.505 243)" stroke="black"/>
<rect x="92.6699" y="243" width="48.4" height="45.8356" transform="rotate(90 92.6699 243)" stroke="black"/>
<rect x="46.834" y="243" width="48.4" height="45.8356" transform="rotate(90 46.834 243)" stroke="black"/>
<rect x="276.012" y="49.3999" width="48.4" height="45.8356" transform="rotate(90 276.012 49.3999)" stroke="black"/>
<rect x="230.176" y="49.3999" width="48.4" height="45.8356" transform="rotate(90 230.176 49.3999)" stroke="black"/>
<rect x="184.341" y="49.3999" width="48.4" height="45.8356" transform="rotate(90 184.341 49.3999)" stroke="black"/>
<rect x="138.505" y="49.3999" width="48.4" height="45.8356" transform="rotate(90 138.505 49.3999)" stroke="black"/>
<rect x="92.6689" y="49.3999" width="48.4" height="45.8356" transform="rotate(90 92.6689 49.3999)" stroke="black"/>
<rect x="46.834" y="49.3999" width="48.4" height="45.8356" transform="rotate(90 46.834 49.3999)" stroke="black"/>
<rect x="276.012" y="291.4" width="48.4" height="45.8356" transform="rotate(90 276.012 291.4)" stroke="black"/>
<rect x="230.176" y="291.4" width="48.4" height="45.8356" transform="rotate(90 230.176 291.4)" stroke="black"/>
<rect x="184.341" y="291.4" width="48.4" height="45.8356" transform="rotate(90 184.341 291.4)" stroke="black"/>
<rect x="138.505" y="291.4" width="48.4" height="45.8356" transform="rotate(90 138.505 291.4)" stroke="black"/>
<rect x="92.6699" y="291.4" width="48.4" height="45.8356" transform="rotate(90 92.6699 291.4)" stroke="black"/>
<rect x="46.834" y="291.4" width="48.4" height="45.8356" transform="rotate(90 46.834 291.4)" stroke="black"/>
<rect x="276.012" y="97.8" width="48.4" height="45.8356" transform="rotate(90 276.012 97.8)" stroke="black"/>
<rect x="230.176" y="97.8" width="48.4" height="45.8356" transform="rotate(90 230.176 97.8)" stroke="black"/>
<rect x="184.341" y="97.8" width="48.4" height="45.8356" transform="rotate(90 184.341 97.8)" stroke="black"/>
<rect x="138.505" y="97.8" width="48.4" height="45.8356" transform="rotate(90 138.505 97.8)" stroke="black"/>
<rect x="92.6699" y="97.8" width="48.4" height="45.8356" transform="rotate(90 92.6699 97.8)" stroke="black"/>
<rect x="46.834" y="97.8" width="48.4" height="45.8356" transform="rotate(90 46.834 97.8)" stroke="black"/>
<rect x="276.012" y="339.8" width="48.4" height="45.8356" transform="rotate(90 276.012 339.8)" stroke="black"/>
<rect x="230.176" y="339.8" width="48.4" height="45.8356" transform="rotate(90 230.176 339.8)" stroke="black"/>
<rect x="184.341" y="339.8" width="48.4" height="45.8356" transform="rotate(90 184.341 339.8)" stroke="black"/>
<rect x="138.505" y="339.8" width="48.4" height="45.8356" transform="rotate(90 138.505 339.8)" stroke="black"/>
<rect x="92.6699" y="339.8" width="48.4" height="45.8356" transform="rotate(90 92.6699 339.8)" stroke="black"/>
<rect x="46.834" y="339.8" width="48.4" height="45.8356" transform="rotate(90 46.834 339.8)" stroke="black"/>
<rect x="276.012" y="146.2" width="48.4" height="45.8356" transform="rotate(90 276.012 146.2)" stroke="black"/>
<rect x="230.176" y="146.2" width="48.4" height="45.8356" transform="rotate(90 230.176 146.2)" stroke="black"/>
<rect x="184.341" y="146.2" width="48.4" height="45.8356" transform="rotate(90 184.341 146.2)" stroke="black"/>
<rect x="138.505" y="146.2" width="48.4" height="45.8356" transform="rotate(90 138.505 146.2)" stroke="black"/>
<rect x="92.6699" y="146.2" width="48.4" height="45.8356" transform="rotate(90 92.6699 146.2)" stroke="black"/>
<rect x="46.834" y="146.2" width="48.4" height="45.8356" transform="rotate(90 46.834 146.2)" stroke="black"/>
<rect x="276.012" y="388.2" width="48.4" height="45.8356" transform="rotate(90 276.012 388.2)" stroke="black"/>
<rect x="230.176" y="388.2" width="48.4" height="45.8356" transform="rotate(90 230.176 388.2)" stroke="black"/>
<rect x="184.341" y="388.2" width="48.4" height="45.8356" transform="rotate(90 184.341 388.2)" stroke="black"/>
<rect x="138.505" y="388.2" width="48.4" height="45.8356" transform="rotate(90 138.505 388.2)" stroke="black"/>
<rect x="92.6699" y="388.2" width="48.4" height="45.8356" transform="rotate(90 92.6699 388.2)" stroke="black"/>
<rect x="46.834" y="388.2" width="48.4" height="45.8356" transform="rotate(90 46.834 388.2)" stroke="black"/>
<rect x="276.012" y="194.6" width="48.4" height="45.8356" transform="rotate(90 276.012 194.6)" stroke="black"/>
<rect x="230.176" y="194.6" width="48.4" height="45.8356" transform="rotate(90 230.176 194.6)" stroke="black"/>
<rect x="184.341" y="194.6" width="48.4" height="45.8356" transform="rotate(90 184.341 194.6)" stroke="black"/>
<rect x="138.505" y="194.6" width="48.4" height="45.8356" transform="rotate(90 138.505 194.6)" stroke="black"/>
<rect x="92.6699" y="194.6" width="48.4" height="45.8356" transform="rotate(90 92.6699 194.6)" stroke="black"/>
<rect x="46.834" y="194.6" width="48.4" height="45.8356" transform="rotate(90 46.834 194.6)" stroke="black"/>
<rect x="276.012" y="436.6" width="48.4" height="45.8356" transform="rotate(90 276.012 436.6)" stroke="black"/>
<rect x="230.176" y="436.6" width="48.4" height="45.8356" transform="rotate(90 230.176 436.6)" stroke="black"/>
<rect x="184.341" y="436.6" width="48.4" height="45.8356" transform="rotate(90 184.341 436.6)" stroke="black"/>
<rect x="138.505" y="436.6" width="48.4" height="45.8356" transform="rotate(90 138.505 436.6)" stroke="black"/>
<rect x="92.6699" y="436.6" width="48.4" height="45.8356" transform="rotate(90 92.6699 436.6)" stroke="black"/>
<rect x="46.834" y="436.6" width="48.4" height="45.8356" transform="rotate(90 46.834 436.6)" stroke="black"/>
</svg>
