<svg width="575" height="555" viewBox="0 0 575 555" fill="none" xmlns="http://www.w3.org/2000/svg">
<path d="M331.771 43.3378L377.698 273.012L155.831 197.949L331.771 43.3378Z" fill="#F24F1F" stroke="black" stroke-width="8" stroke-linejoin="round"/>
<circle cx="427.25" cy="341.25" r="143.25" fill="#FFC700" stroke="black" stroke-width="8"/>
<path d="M421.429 51.583C421.877 92.9501 397.952 175.416 298.671 174.341C199.39 173.266 180.012 251.185 182.733 290.279" stroke="black" stroke-width="12" stroke-linecap="round"/>
<rect width="212.529" height="436.913" rx="36.45" transform="matrix(-0.999391 -0.0348995 -0.0348995 0.999391 317.059 116.607)" fill="#F2F2F2" stroke="black" stroke-width="4" stroke-linejoin="round"/>
<path fill-rule="evenodd" clip-rule="evenodd" d="M262.576 124.024L283.141 124.742C296.553 125.211 307.046 136.463 306.578 149.876L293.696 518.759C293.228 532.171 281.975 542.664 268.563 542.196L123.964 537.147C110.552 536.678 100.059 525.426 100.527 512.013L113.409 143.13C113.877 129.718 125.13 119.225 138.542 119.693L158.523 120.391L158.477 121.709C158.211 129.31 164.157 135.686 171.758 135.951L248.288 138.624C255.888 138.889 262.265 132.943 262.53 125.343L262.576 124.024Z" fill="#C5B9FF"/>
<path d="M262.576 124.024L260.578 123.954C260.596 123.424 260.824 122.923 261.212 122.562C261.6 122.2 262.116 122.007 262.646 122.025L262.576 124.024ZM306.578 149.876L308.577 149.945L306.578 149.876ZM293.696 518.759L291.697 518.689L293.696 518.759ZM268.563 542.196L268.633 540.197L268.563 542.196ZM123.964 537.147L123.894 539.145L123.964 537.147ZM100.527 512.013L98.5283 511.944L100.527 512.013ZM113.409 143.13L115.408 143.2L113.409 143.13ZM138.542 119.693L138.472 121.692L138.542 119.693ZM158.523 120.391L158.592 118.392C159.123 118.41 159.624 118.639 159.985 119.027C160.347 119.415 160.54 119.93 160.521 120.46L158.523 120.391ZM262.53 125.343L264.529 125.413L262.53 125.343ZM283.071 126.741L262.506 126.023L262.646 122.025L283.21 122.744L283.071 126.741ZM304.579 149.806C305.009 137.497 295.379 127.171 283.071 126.741L283.21 122.744C297.727 123.251 309.083 135.429 308.577 149.945L304.579 149.806ZM291.697 518.689L304.579 149.806L308.577 149.945L295.695 518.829L291.697 518.689ZM268.633 540.197C280.941 540.627 291.267 530.998 291.697 518.689L295.695 518.829C295.188 533.345 283.009 544.702 268.493 544.195L268.633 540.197ZM124.034 535.148L268.633 540.197L268.493 544.195L123.894 539.145L124.034 535.148ZM102.526 512.083C102.096 524.392 111.726 534.718 124.034 535.148L123.894 539.145C109.378 538.638 98.0214 526.46 98.5283 511.944L102.526 512.083ZM115.408 143.2L102.526 512.083L98.5283 511.944L111.41 143.06L115.408 143.2ZM138.472 121.692C126.164 121.262 115.837 130.891 115.408 143.2L111.41 143.06C111.917 128.544 124.096 117.187 138.612 117.694L138.472 121.692ZM158.453 122.389L138.472 121.692L138.612 117.694L158.592 118.392L158.453 122.389ZM160.521 120.46L160.475 121.779L156.478 121.639L156.524 120.321L160.521 120.46ZM160.475 121.779C160.249 128.276 165.331 133.726 171.827 133.953L171.688 137.95C162.984 137.646 156.174 130.344 156.478 121.639L160.475 121.779ZM171.827 133.953L248.358 136.625L248.218 140.623L171.688 137.95L171.827 133.953ZM248.358 136.625C254.854 136.852 260.305 131.77 260.531 125.273L264.529 125.413C264.225 134.117 256.923 140.927 248.218 140.623L248.358 136.625ZM260.531 125.273L260.578 123.954L264.575 124.094L264.529 125.413L260.531 125.273Z" fill="black"/>
<mask id="mask0_98_552" style="mask-type:alpha" maskUnits="userSpaceOnUse" x="0" y="72" width="307" height="470">
<rect width="290.705" height="459.295" transform="matrix(-0.999391 -0.0348995 -0.0348995 0.999391 306.953 82.4882)" fill="white"/>
</mask>
<g mask="url(#mask0_98_552)">
<path fill-rule="evenodd" clip-rule="evenodd" d="M99.8912 186.768C96.8509 198.151 91.7559 207.152 87.5744 209.524C77.0893 215.472 46.6901 185.538 41.5078 167.168C36.3256 148.799 64.6381 111.27 89.4634 133.608C98.0795 141.361 101.75 152.16 102.432 163.206L153.34 197.382L126.429 223.37L99.8912 186.768Z" fill="white"/>
<path d="M87.5744 209.524L88.5612 211.264L88.5612 211.264L87.5744 209.524ZM99.8912 186.768L97.9589 186.252C98.158 185.507 98.7682 184.942 99.5269 184.802C100.286 184.661 101.057 184.97 101.51 185.594L99.8912 186.768ZM41.5078 167.168L39.583 167.711L41.5078 167.168ZM89.4634 133.608L90.8011 132.121L89.4634 133.608ZM102.432 163.206L101.318 164.867C100.8 164.519 100.474 163.951 100.436 163.329L102.432 163.206ZM153.34 197.382L154.455 195.722C154.956 196.059 155.279 196.604 155.332 197.206C155.385 197.808 155.164 198.401 154.729 198.821L153.34 197.382ZM126.429 223.37L127.818 224.808C127.401 225.211 126.831 225.413 126.254 225.362C125.676 225.311 125.15 225.013 124.81 224.544L126.429 223.37ZM86.5876 207.785C88.1722 206.886 90.2693 204.463 92.407 200.564C94.4958 196.754 96.4741 191.811 97.9589 186.252L101.823 187.285C100.268 193.108 98.1786 198.357 95.9144 202.487C93.6992 206.527 91.158 209.791 88.5612 211.264L86.5876 207.785ZM43.4327 166.625C45.8794 175.298 54.47 187.072 63.9265 196.012C68.6272 200.456 73.4169 204.079 77.5938 206.219C79.683 207.289 81.5404 207.947 83.1027 208.189C84.6622 208.43 85.7895 208.237 86.5876 207.785L88.5612 211.264C86.738 212.298 84.6217 212.471 82.4916 212.142C80.3643 211.813 78.086 210.965 75.7699 209.779C71.136 207.405 66.0361 203.511 61.1786 198.919C51.5186 189.786 42.3185 177.408 39.583 167.711L43.4327 166.625ZM88.1256 135.094C82.3023 129.855 76.4323 128.236 70.9861 128.833C65.4692 129.437 60.1483 132.343 55.5964 136.586C51.0507 140.823 47.3865 146.291 45.1791 151.78C42.956 157.308 42.3021 162.618 43.4327 166.625L39.583 167.711C38.1224 162.534 39.0643 156.264 41.468 150.287C43.8875 144.271 47.8814 138.309 52.8691 133.66C57.8508 129.016 63.9388 125.58 70.5507 124.856C77.2332 124.125 84.2118 126.192 90.8011 132.121L88.1256 135.094ZM100.436 163.329C99.7751 152.624 96.2345 142.391 88.1256 135.094L90.8011 132.121C99.9244 140.33 103.725 151.696 104.428 163.083L100.436 163.329ZM152.225 199.043L101.318 164.867L103.547 161.546L154.455 195.722L152.225 199.043ZM125.04 221.931L151.95 195.944L154.729 198.821L127.818 224.808L125.04 221.931ZM101.51 185.594L128.048 222.196L124.81 224.544L98.272 187.942L101.51 185.594Z" fill="black"/>
<path fill-rule="evenodd" clip-rule="evenodd" d="M27.3454 158.914C33.1211 164.895 42.5343 165.246 48.7489 159.854C53.1359 157.631 58.2185 154.201 63.3474 149.871C64.5759 152.08 66.2487 154.321 68.4264 156.576C70.3492 158.567 72.6085 160.466 75.0843 162.219C74.9314 159.969 75.5469 157.811 76.9649 156.442C80.9315 152.611 86.8396 153.204 90.1808 156.663C94.4214 161.055 94.9506 166.683 91.4903 170.515C101.005 173.69 110.272 174.05 114.883 169.597C123.641 161.14 118.576 143.433 106.435 130.86C106.008 130.418 105.576 129.988 105.138 129.569C110.065 128.738 115.384 128.748 120.741 128.759C132.125 128.781 143.682 128.803 152.017 120.753C168.695 104.648 142.877 64.6586 119.576 87.1599C103.73 102.463 98.1633 112.297 94.7407 122.196C89.8136 119.745 84.7649 118.56 80.1795 118.756C78.94 118.662 77.4116 118.902 75.6639 119.445C74.5661 119.746 73.5136 120.144 72.5169 120.642C67.0299 123.067 60.1492 127.685 53.3738 133.786C52.1086 134.926 50.8945 136.074 49.737 137.222C43.7614 131.073 33.9256 130.919 27.7447 136.888C21.552 142.868 21.3733 152.729 27.3454 158.914Z" fill="black"/>
<path d="M48.7489 159.854L47.4381 158.343C47.562 158.236 47.6986 158.144 47.8448 158.07L48.7489 159.854ZM63.3474 149.871L62.0573 148.343C62.514 147.957 63.1194 147.796 63.7074 147.904C64.2954 148.012 64.8044 148.377 65.0951 148.899L63.3474 149.871ZM75.0843 162.219L77.0797 162.083C77.132 162.853 76.7363 163.585 76.0629 163.963C75.3895 164.341 74.5588 164.297 73.9286 163.851L75.0843 162.219ZM91.4903 170.515L90.8574 172.413C90.2171 172.199 89.7278 171.677 89.5561 171.024C89.3844 170.371 89.5536 169.676 90.0059 169.175L91.4903 170.515ZM105.138 129.569L103.755 131.015C103.209 130.492 103.004 129.705 103.226 128.982C103.448 128.259 104.059 127.723 104.805 127.597L105.138 129.569ZM120.741 128.759L120.738 130.759L120.738 130.759L120.741 128.759ZM94.7407 122.196L96.6309 122.85C96.4429 123.393 96.03 123.83 95.4977 124.047C94.9653 124.265 94.365 124.243 93.85 123.987L94.7407 122.196ZM80.1795 118.756L80.2648 120.754C80.1858 120.757 80.1068 120.756 80.028 120.75L80.1795 118.756ZM75.6639 119.445L76.2568 121.355C76.2357 121.361 76.2145 121.368 76.1933 121.373L75.6639 119.445ZM72.5169 120.642L73.41 122.431C73.3821 122.445 73.354 122.459 73.3255 122.471L72.5169 120.642ZM53.3738 133.786L52.0355 132.3L52.0355 132.3L53.3738 133.786ZM49.737 137.222L51.1455 138.642C50.7664 139.018 50.2526 139.227 49.7186 139.222C49.1846 139.217 48.6748 138.999 48.3026 138.616L49.737 137.222ZM50.0596 161.365C43.0482 167.448 32.4266 167.055 25.9068 160.303L28.7841 157.524C33.8156 162.735 42.0205 163.044 47.4381 158.343L50.0596 161.365ZM64.6374 151.4C59.4187 155.805 54.2078 159.33 49.6529 161.638L47.8448 158.07C52.064 155.932 57.0183 152.597 62.0573 148.343L64.6374 151.4ZM66.9877 157.965C64.7063 155.602 62.9237 153.224 61.5996 150.844L65.0951 148.899C66.2281 150.936 67.7912 153.039 69.865 155.186L66.9877 157.965ZM73.9286 163.851C71.3679 162.038 69.0103 160.059 66.9877 157.965L69.865 155.186C71.6881 157.074 73.849 158.894 76.2399 160.586L73.9286 163.851ZM73.0889 162.354C72.9094 159.713 73.6096 156.902 75.5756 155.003L78.3542 157.88C77.4842 158.721 76.9535 160.226 77.0797 162.083L73.0889 162.354ZM75.5756 155.003C80.404 150.34 87.5775 151.089 91.6195 155.274L88.7421 158.053C86.1016 155.318 81.4591 154.882 78.3542 157.88L75.5756 155.003ZM91.6195 155.274C96.3865 160.211 97.3208 167.042 92.9748 171.856L90.0059 169.175C92.5804 166.324 92.4562 161.899 88.7421 158.053L91.6195 155.274ZM116.272 171.036C113.459 173.753 109.405 174.842 105.06 174.916C100.686 174.991 95.7584 174.048 90.8574 172.413L92.1233 168.618C96.7368 170.157 101.2 170.982 104.991 170.917C108.811 170.852 111.697 169.894 113.494 168.159L116.272 171.036ZM107.874 129.471C114.153 135.973 118.656 143.851 120.441 151.306C122.218 158.726 121.362 166.122 116.272 171.036L113.494 168.159C117.163 164.616 118.153 158.929 116.551 152.238C114.958 145.581 110.858 138.32 104.996 132.249L107.874 129.471ZM106.52 128.124C106.977 128.561 107.429 129.01 107.874 129.471L104.996 132.249C104.588 131.827 104.174 131.415 103.755 131.015L106.52 128.124ZM120.738 130.759C115.343 130.748 110.2 130.743 105.471 131.541L104.805 127.597C109.93 126.733 115.425 126.748 120.745 126.759L120.738 130.759ZM153.406 122.192C144.389 130.9 131.933 130.78 120.738 130.759L120.745 126.759C132.317 126.781 142.974 126.706 150.628 119.315L153.406 122.192ZM118.187 85.7212C124.389 79.732 130.977 77.7288 137.125 78.6746C143.188 79.6074 148.493 83.3575 152.357 88.2377C156.224 93.1229 158.782 99.3009 159.255 105.391C159.729 111.501 158.101 117.659 153.406 122.192L150.628 119.315C154.272 115.795 155.671 110.915 155.267 105.7C154.861 100.466 152.635 95.0333 149.22 90.7206C145.802 86.403 141.326 83.3681 136.516 82.6281C131.791 81.901 126.414 83.3372 120.966 88.5986L118.187 85.7212ZM92.8505 121.542C96.3993 111.279 102.172 101.187 118.187 85.7212L120.966 88.5986C105.288 103.738 99.9273 113.316 96.6309 122.85L92.8505 121.542ZM80.0943 116.758C85.0756 116.545 90.4588 117.833 95.6314 120.405L93.85 123.987C89.1685 121.658 84.4541 120.575 80.2648 120.754L80.0943 116.758ZM75.071 117.535C76.9446 116.953 78.7434 116.641 80.3311 116.762L80.028 120.75C79.1367 120.682 77.8786 120.851 76.2568 121.355L75.071 117.535ZM71.6238 118.852C72.7424 118.294 73.9173 117.85 75.1345 117.516L76.1933 121.373C75.2149 121.642 74.2848 121.995 73.41 122.431L71.6238 118.852ZM52.0355 132.3C58.9158 126.105 65.9723 121.348 71.7083 118.813L73.3255 122.471C68.0875 124.786 61.3826 129.266 54.7121 135.273L52.0355 132.3ZM48.3285 135.802C49.509 134.631 50.7466 133.461 52.0355 132.3L54.7121 135.273C53.4707 136.391 52.2799 137.517 51.1455 138.642L48.3285 135.802ZM26.3554 135.449C33.3275 128.716 44.4262 128.887 51.1714 135.828L48.3026 138.616C43.0966 133.258 34.5237 133.122 29.134 138.327L26.3554 135.449ZM25.9068 160.303C19.1655 153.322 19.37 142.195 26.3554 135.449L29.134 138.327C23.7341 143.541 23.581 152.136 28.7841 157.524L25.9068 160.303Z" fill="black"/>
<path fill-rule="evenodd" clip-rule="evenodd" d="M337.762 438.839C337.762 438.839 286.176 465.85 246.381 474.309C206.585 482.768 167.428 466.379 167.428 466.379C167.428 466.379 217.753 439.212 252.486 431.829C287.218 424.447 337.762 438.839 337.762 438.839Z" fill="#595959" stroke="black" stroke-width="4"/>
<path fill-rule="evenodd" clip-rule="evenodd" d="M217.862 495.791C218.102 495.185 218.277 494.545 218.38 493.87C220.518 479.895 269.145 323.704 271.521 296.532L183.379 315.268C181.572 335.926 180.757 463.333 182.163 488.42C178.454 529.25 180.426 658.513 179.138 667.77C177.783 677.509 198.224 683.01 200.774 670.849C204.833 651.499 213.058 598.596 215 566.949C216.821 537.279 217.795 510.728 217.862 495.791Z" fill="white" stroke="black" stroke-width="4" stroke-linejoin="round"/>
<path fill-rule="evenodd" clip-rule="evenodd" d="M293.595 497.501C331.312 498.946 465.713 487.484 475.243 488.142C485.046 488.818 489.097 468.031 476.796 466.329C457.222 463.622 403.908 459.085 372.224 459.344C346.739 459.553 323.585 460.224 308.115 461.023C300.441 418.687 284.778 316.503 276.345 295.507L198.356 312.084C206.442 332.218 269.66 478.233 278.629 492.287C281.604 497.353 287.535 498.611 293.595 497.501V497.501Z" fill="white" stroke="black" stroke-width="4" stroke-linejoin="round"/>
<path fill-rule="evenodd" clip-rule="evenodd" d="M276.093 295.56C276.093 295.56 221.405 291.758 178.54 316.296C178.226 367.282 156.409 392.129 167.727 467.792C225.03 482.546 279.665 424.789 338.356 438.58C346.127 400.188 306.793 320.068 276.093 295.56Z" fill="black" stroke="black" stroke-width="4" stroke-linejoin="round"/>
<path fill-rule="evenodd" clip-rule="evenodd" d="M96.2728 425.009L109.876 364.881L135.979 378.148L112.194 425.83C112.402 447.29 110.994 457.536 107.967 456.568C105.416 455.752 104.829 453.422 104.289 451.275C103.868 449.603 103.475 448.043 102.203 447.397C99.2985 445.92 92.4465 452.296 86.2026 458.623C79.9587 464.951 79.3238 460.284 79.6608 457.415C82.9411 447.399 88.4784 436.597 96.2728 425.009ZM348.599 335.672C339.727 330.398 277.555 263.223 277.555 263.223L250.306 281.072C250.306 281.072 328.581 346.211 333.839 349.892C340.669 354.675 342.337 366.985 343.467 375.332C343.642 376.623 343.804 377.82 343.971 378.879C349.373 378.031 349.915 374.463 350.487 370.702C351.133 366.454 351.817 361.959 359.582 360.856C362.583 360.431 365.586 360.28 368.52 360.133C378.654 359.626 387.964 359.16 393.482 347.519C394.356 345.674 393.757 341.253 388.179 341.116C374.283 340.776 352.936 338.25 348.599 335.672Z" fill="white"/>
<path d="M109.876 364.881L107.925 364.44C108.061 363.838 108.468 363.333 109.026 363.071C109.584 362.809 110.232 362.819 110.782 363.098L109.876 364.881ZM96.2728 425.009L98.2236 425.451C98.169 425.692 98.0703 425.92 97.9323 426.126L96.2728 425.009ZM135.979 378.148L136.885 376.365C137.864 376.862 138.259 378.057 137.768 379.04L135.979 378.148ZM112.194 425.83L110.194 425.849C110.191 425.533 110.263 425.22 110.404 424.937L112.194 425.83ZM107.967 456.568L108.577 454.663L108.577 454.663L107.967 456.568ZM104.289 451.275L102.349 451.764L102.349 451.764L104.289 451.275ZM102.203 447.397L101.297 449.179L101.297 449.179L102.203 447.397ZM86.2026 458.623L87.6262 460.028L87.6262 460.028L86.2026 458.623ZM79.6608 457.415L77.6744 457.181C77.69 457.049 77.7187 456.919 77.7601 456.792L79.6608 457.415ZM277.555 263.223L276.459 261.55C277.276 261.015 278.36 261.148 279.023 261.865L277.555 263.223ZM348.599 335.672L347.577 337.391L347.577 337.391L348.599 335.672ZM250.306 281.072L249.026 282.609C248.539 282.203 248.273 281.591 248.309 280.957C248.345 280.324 248.679 279.746 249.21 279.399L250.306 281.072ZM333.839 349.892L334.986 348.254L334.986 348.254L333.839 349.892ZM343.467 375.332L341.485 375.6L341.485 375.6L343.467 375.332ZM343.971 378.879L344.281 380.855C343.19 381.026 342.166 380.28 341.995 379.189L343.971 378.879ZM350.487 370.702L348.51 370.401L348.51 370.401L350.487 370.702ZM359.582 360.856L359.301 358.876L359.301 358.876L359.582 360.856ZM368.52 360.133L368.62 362.131L368.62 362.131L368.52 360.133ZM393.482 347.519L395.289 348.376L395.289 348.376L393.482 347.519ZM388.179 341.116L388.228 339.117L388.228 339.117L388.179 341.116ZM111.827 365.322L98.2236 425.451L94.3221 424.568L107.925 364.44L111.827 365.322ZM135.072 379.931L108.97 366.664L110.782 363.098L136.885 376.365L135.072 379.931ZM110.404 424.937L134.189 377.255L137.768 379.04L113.983 426.722L110.404 424.937ZM108.577 454.663C108.355 454.592 108.059 454.641 107.88 454.767C107.803 454.821 107.92 454.768 108.129 454.329C108.544 453.462 108.966 451.857 109.312 449.337C109.996 444.367 110.298 436.562 110.194 425.849L114.194 425.81C114.298 436.558 114 444.606 113.275 449.882C112.917 452.485 112.432 454.602 111.738 456.054C111.394 456.776 110.905 457.532 110.173 458.044C109.338 458.629 108.336 458.786 107.358 458.473L108.577 454.663ZM106.228 450.787C106.819 453.134 107.23 454.232 108.577 454.663L107.358 458.473C103.601 457.271 102.839 453.709 102.349 451.764L106.228 450.787ZM103.109 445.614C104.293 446.215 104.968 447.206 105.385 448.122C105.785 448.999 106.029 449.997 106.228 450.787L102.349 451.764C102.127 450.882 101.965 450.263 101.745 449.781C101.542 449.336 101.385 449.224 101.297 449.179L103.109 445.614ZM84.779 457.218C87.9018 454.054 91.2596 450.791 94.2346 448.499C95.7147 447.359 97.1947 446.384 98.5721 445.798C99.8692 445.246 101.566 444.829 103.109 445.614L101.297 449.179C101.388 449.226 101.139 449.053 100.139 449.478C99.2197 449.87 98.0519 450.608 96.6755 451.668C93.9374 453.777 90.7473 456.865 87.6262 460.028L84.779 457.218ZM81.6471 457.648C81.576 458.254 81.5652 458.897 81.6412 459.411C81.7297 460.01 81.8729 460.037 81.7308 459.92C81.3914 459.642 81.1687 459.906 81.698 459.675C82.2829 459.419 83.2804 458.737 84.779 457.218L87.6262 460.028C86.0029 461.673 84.5796 462.781 83.2999 463.34C81.9646 463.924 80.4335 464.028 79.197 463.015C78.1578 462.165 77.8152 460.882 77.6842 459.996C77.5409 459.027 77.5771 458.01 77.6744 457.181L81.6471 457.648ZM97.9323 426.126C90.2095 437.607 84.7693 448.242 81.5614 458.037L77.7601 456.792C81.1128 446.555 86.7474 435.587 94.6133 423.893L97.9323 426.126ZM277.555 263.223C279.023 261.865 279.023 261.865 279.024 261.865C279.024 261.866 279.025 261.867 279.026 261.868C279.028 261.87 279.03 261.873 279.034 261.877C279.042 261.885 279.053 261.897 279.068 261.913C279.098 261.945 279.142 261.993 279.201 262.057C279.319 262.184 279.493 262.372 279.722 262.619C280.179 263.111 280.851 263.835 281.709 264.758C283.425 266.604 285.887 269.247 288.869 272.435C294.833 278.813 302.877 287.369 311.197 296.089C319.519 304.811 328.108 313.688 335.166 320.709C338.696 324.221 341.831 327.256 344.352 329.572C346.93 331.94 348.721 333.418 349.621 333.953L347.577 337.391C346.259 336.608 344.166 334.833 341.646 332.518C339.069 330.15 335.891 327.072 332.345 323.545C325.25 316.487 316.633 307.581 308.303 298.85C299.971 290.118 291.917 281.551 285.947 275.168C282.962 271.976 280.498 269.33 278.779 267.482C277.92 266.557 277.247 265.833 276.789 265.339C276.56 265.092 276.385 264.903 276.267 264.775C276.208 264.711 276.163 264.663 276.133 264.631C276.118 264.614 276.106 264.602 276.099 264.594C276.095 264.59 276.092 264.587 276.09 264.585C276.089 264.584 276.089 264.583 276.088 264.582C276.088 264.582 276.087 264.582 277.555 263.223ZM249.21 279.399L276.459 261.55L278.651 264.896L251.402 282.745L249.21 279.399ZM332.692 351.531C329.975 349.629 308.987 332.334 288.825 315.642C278.711 307.269 268.761 299.01 261.34 292.846C257.63 289.763 254.551 287.204 252.401 285.416C251.325 284.521 250.482 283.82 249.907 283.342C249.62 283.103 249.4 282.919 249.251 282.796C249.177 282.734 249.121 282.688 249.083 282.656C249.064 282.64 249.05 282.629 249.041 282.621C249.036 282.617 249.032 282.614 249.03 282.612C249.029 282.611 249.028 282.61 249.027 282.61C249.027 282.609 249.026 282.609 250.306 281.072C251.585 279.534 251.585 279.535 251.586 279.535C251.587 279.535 251.587 279.536 251.589 279.537C251.591 279.539 251.595 279.542 251.599 279.546C251.609 279.554 251.623 279.566 251.642 279.581C251.679 279.613 251.736 279.659 251.81 279.721C251.958 279.844 252.178 280.028 252.465 280.266C253.04 280.744 253.883 281.446 254.958 282.34C257.109 284.128 260.186 286.687 263.896 289.769C271.316 295.933 281.264 304.189 291.376 312.561C311.666 329.359 332.445 346.475 334.986 348.254L332.692 351.531ZM341.485 375.6C340.917 371.402 340.234 366.393 338.874 361.849C337.499 357.253 335.54 353.525 332.692 351.531L334.986 348.254C338.968 351.042 341.258 355.861 342.706 360.702C344.171 365.595 344.887 370.915 345.449 375.063L341.485 375.6ZM341.995 379.189C341.825 378.105 341.66 376.886 341.485 375.6L345.449 375.063C345.625 376.36 345.784 377.534 345.947 378.569L341.995 379.189ZM352.465 371.003C352.193 372.786 351.879 375.042 350.754 376.913C349.518 378.971 347.465 380.355 344.281 380.855L343.661 376.903C345.878 376.555 346.798 375.731 347.326 374.853C347.966 373.787 348.209 372.38 348.51 370.401L352.465 371.003ZM359.864 362.837C356.376 363.332 354.841 364.518 354.018 365.726C353.095 367.079 352.801 368.79 352.465 371.003L348.51 370.401C348.82 368.366 349.19 365.706 350.713 363.473C352.333 361.096 355.024 359.484 359.301 358.876L359.864 362.837ZM368.62 362.131C365.671 362.278 362.759 362.426 359.864 362.837L359.301 358.876C362.406 358.435 365.5 358.282 368.42 358.136L368.62 362.131ZM395.289 348.376C392.316 354.649 388.224 358.046 383.445 359.87C378.81 361.639 373.613 361.881 368.62 362.131L368.42 358.136C373.561 357.879 378.086 357.634 382.019 356.133C385.808 354.687 389.13 352.031 391.674 346.663L395.289 348.376ZM388.228 339.117C391.61 339.2 393.872 340.64 395.006 342.72C396.047 344.63 396.002 346.87 395.289 348.376L391.674 346.663C391.835 346.323 391.928 345.43 391.494 344.634C391.153 344.008 390.326 343.169 388.13 343.116L388.228 339.117ZM349.621 333.953C350.385 334.407 352.221 334.996 355.077 335.607C357.834 336.196 361.286 336.756 365.064 337.25C372.619 338.239 381.359 338.949 388.228 339.117L388.13 343.116C381.103 342.944 372.222 342.221 364.545 341.216C360.706 340.714 357.14 340.138 354.241 339.518C351.44 338.919 348.981 338.226 347.577 337.391L349.621 333.953Z" fill="black"/>
<path fill-rule="evenodd" clip-rule="evenodd" d="M125.574 199.161L113.012 204.565C125.081 265.758 119.751 331.941 97.0239 403.116L162.544 423.779C174.343 335.789 166.378 258.087 125.574 199.161Z" fill="white" stroke="black" stroke-width="4" stroke-linejoin="round"/>
<path fill-rule="evenodd" clip-rule="evenodd" d="M266.985 309.029L166.323 374.4C166.323 374.4 146.143 266.741 107.586 207.369L135.016 183.132C183.771 205.963 221.156 248.777 266.985 309.029Z" fill="#DDE3E9" stroke="black" stroke-width="4" stroke-linejoin="round"/>
<path fill-rule="evenodd" clip-rule="evenodd" d="M340.719 322.398C249.163 205.516 135.684 182.699 135.684 182.699L135.674 182.736C135.665 182.731 135.657 182.727 135.648 182.722L133.666 184.009C130.188 186.442 123.115 191.488 123.115 191.488L129.376 217.193C153.081 256.245 216.017 380.376 216.017 380.376L281.906 337.587C285.25 342.981 288.506 348.538 291.655 354.261L340.719 322.398Z" fill="white"/>
<path d="M135.684 182.699L133.756 182.167C134.035 181.155 135.049 180.531 136.078 180.738L135.684 182.699ZM340.719 322.398L342.293 321.165C342.639 321.607 342.784 322.174 342.692 322.727C342.599 323.281 342.279 323.77 341.808 324.076L340.719 322.398ZM135.674 182.736L137.602 183.267C137.441 183.851 137.024 184.331 136.467 184.572C135.911 184.812 135.275 184.787 134.74 184.504L135.674 182.736ZM135.648 182.722L134.559 181.045C135.167 180.65 135.941 180.615 136.582 180.954L135.648 182.722ZM133.666 184.009L132.52 182.37C132.538 182.357 132.557 182.344 132.577 182.332L133.666 184.009ZM123.115 191.488L121.172 191.961C120.978 191.167 121.288 190.335 121.953 189.86L123.115 191.488ZM129.376 217.193L127.666 218.231C127.56 218.055 127.481 217.865 127.433 217.666L129.376 217.193ZM216.017 380.376L217.106 382.053C216.63 382.362 216.045 382.455 215.497 382.307C214.949 382.16 214.49 381.786 214.233 381.28L216.017 380.376ZM281.906 337.587L280.817 335.909C281.268 335.617 281.818 335.518 282.343 335.635C282.867 335.752 283.323 336.076 283.606 336.533L281.906 337.587ZM291.655 354.261L292.744 355.938C292.278 356.241 291.707 356.336 291.168 356.201C290.629 356.065 290.171 355.712 289.903 355.225L291.655 354.261ZM135.684 182.699C136.078 180.738 136.079 180.738 136.081 180.738C136.082 180.739 136.084 180.739 136.087 180.74C136.091 180.741 136.097 180.742 136.105 180.743C136.121 180.747 136.144 180.751 136.174 180.758C136.233 180.77 136.319 180.788 136.433 180.812C136.659 180.861 136.992 180.934 137.428 181.034C138.299 181.234 139.582 181.541 141.242 181.972C144.561 182.834 149.393 184.193 155.47 186.19C167.624 190.183 184.767 196.726 204.777 206.936C244.798 227.356 296.303 262.453 342.293 321.165L339.144 323.632C293.579 265.461 242.566 230.708 202.959 210.499C183.155 200.394 166.206 193.928 154.221 189.99C148.229 188.022 143.48 186.685 140.236 185.843C138.614 185.422 137.369 185.124 136.534 184.933C136.116 184.837 135.801 184.768 135.592 184.723C135.488 184.701 135.41 184.684 135.359 184.674C135.334 184.669 135.316 184.665 135.304 184.662C135.298 184.661 135.294 184.66 135.292 184.66C135.291 184.66 135.29 184.659 135.289 184.659C135.289 184.659 135.29 184.659 135.684 182.699ZM133.746 182.205L133.756 182.167L137.612 183.23L137.602 183.267L133.746 182.205ZM136.582 180.954C136.591 180.958 136.599 180.963 136.608 180.967L134.74 184.504C134.731 184.5 134.722 184.495 134.714 184.491L136.582 180.954ZM132.577 182.332L134.559 181.045L136.737 184.399L134.755 185.687L132.577 182.332ZM123.115 191.488C121.953 189.86 121.953 189.86 121.953 189.86C121.953 189.86 121.953 189.86 121.954 189.86C121.954 189.859 121.954 189.859 121.954 189.859C121.955 189.858 121.957 189.857 121.958 189.856C121.962 189.854 121.967 189.85 121.974 189.845C121.987 189.836 122.007 189.821 122.034 189.802C122.086 189.765 122.164 189.709 122.264 189.638C122.465 189.495 122.755 189.288 123.114 189.033C123.832 188.521 124.825 187.814 125.927 187.031C128.13 185.465 130.774 183.592 132.52 182.37L134.812 185.648C133.08 186.86 130.448 188.725 128.245 190.291C127.144 191.073 126.152 191.78 125.435 192.29C125.076 192.546 124.786 192.752 124.586 192.895C124.486 192.966 124.409 193.022 124.356 193.059C124.33 193.078 124.31 193.092 124.297 193.102C124.29 193.106 124.285 193.11 124.281 193.113C124.28 193.114 124.278 193.115 124.278 193.115C124.277 193.116 124.277 193.116 124.277 193.116C124.276 193.116 124.276 193.116 124.276 193.116C124.276 193.116 124.276 193.116 123.115 191.488ZM127.433 217.666L121.172 191.961L125.058 191.015L131.319 216.719L127.433 217.666ZM216.017 380.376C214.233 381.28 214.233 381.28 214.232 381.279C214.232 381.278 214.231 381.277 214.23 381.275C214.228 381.271 214.226 381.265 214.222 381.258C214.214 381.243 214.203 381.22 214.188 381.19C214.157 381.131 214.112 381.042 214.052 380.924C213.933 380.688 213.754 380.337 213.521 379.878C213.055 378.96 212.367 377.608 211.484 375.873C209.718 372.404 207.167 367.404 204.033 361.282C197.763 349.037 189.158 332.304 179.812 314.352C161.106 278.421 139.478 237.689 127.666 218.231L131.086 216.155C142.979 235.748 164.672 276.608 183.36 312.505C192.711 330.467 201.321 347.208 207.593 359.459C210.729 365.584 213.281 370.587 215.049 374.058C215.932 375.794 216.62 377.147 217.087 378.066C217.321 378.526 217.499 378.877 217.619 379.113C217.679 379.232 217.724 379.321 217.755 379.381C217.77 379.411 217.782 379.433 217.789 379.449C217.793 379.456 217.796 379.462 217.798 379.466C217.799 379.468 217.8 379.469 217.8 379.47C217.8 379.471 217.801 379.471 216.017 380.376ZM282.996 339.264L217.106 382.053L214.928 378.698L280.817 335.909L282.996 339.264ZM289.903 355.225C286.771 349.534 283.532 344.006 280.206 338.64L283.606 336.533C286.968 341.956 290.241 347.543 293.407 353.296L289.903 355.225ZM341.808 324.076L292.744 355.938L290.566 352.583L339.629 320.721L341.808 324.076Z" fill="black"/>
<path fill-rule="evenodd" clip-rule="evenodd" d="M282.228 338.108C267.705 314.594 251.517 294.172 235.295 276.712C248.673 301.243 263.177 331.796 263.872 350.029L282.228 338.108Z" fill="black" fill-opacity="0.1"/>
<path fill-rule="evenodd" clip-rule="evenodd" d="M241.367 307.105L199.019 313.129L208.829 328.235L241.367 307.105Z" fill="white" fill-opacity="0.2"/>
</g>
</svg>
